<svg width="25" height="30" viewBox="0 0 25 30" fill="none" xmlns="http://www.w3.org/2000/svg">
<path d="M18.002 0C18.0718 0 18.1417 0 18.2154 0C18.3867 2.11566 17.5792 3.69648 16.5977 4.84126C15.6348 5.97813 14.3161 7.08075 12.1833 6.91345C12.041 4.82809 12.8499 3.36451 13.83 2.22237C14.739 1.15795 16.4054 0.210776 18.002 0Z" fill="black"/>
<path d="M24.4579 22.0208C24.4579 22.0419 24.4579 22.0603 24.4579 22.0801C23.8585 23.8954 23.0036 25.4512 21.9602 26.895C21.0078 28.2058 19.8406 29.9697 17.7566 29.9697C15.9557 29.9697 14.7596 28.8118 12.914 28.7801C10.9617 28.7485 9.88803 29.7484 8.10302 30C7.89883 30 7.69464 30 7.4944 30C6.18364 29.8103 5.12581 28.7722 4.35516 27.8369C2.08273 25.0731 0.326703 21.5031 0 16.9345C0 16.4866 0 16.04 0 15.5922C0.138322 12.3225 1.72705 9.66408 3.83876 8.37571C4.95323 7.69069 6.48531 7.1071 8.19128 7.36794C8.92241 7.48123 9.66934 7.73153 10.3241 7.97919C10.9445 8.21763 11.7205 8.6405 12.4555 8.6181C12.9535 8.60361 13.4488 8.34409 13.9507 8.16098C15.4209 7.63009 16.8621 7.02147 18.7617 7.30734C21.0447 7.65248 22.665 8.66684 23.6662 10.2319C21.7349 11.4609 20.2081 13.3131 20.469 16.4761C20.7008 19.3492 22.3712 21.0302 24.4579 22.0208Z" fill="black"/>
</svg>
