<svg width="315" height="507" viewBox="0 0 315 507" fill="none" xmlns="http://www.w3.org/2000/svg">
<g filter="url(#filter0_d_2580_813)">
<path d="M4 79.1306C4 78.5481 4.47503 78.0775 5.05686 78.061C27.7754 77.4154 46.0352 56.0137 46.1559 29.6545C46.1566 29.4965 46.2526 29.353 46.3992 29.2942C79.3713 16.0672 120.008 9.49409 155.5 8V503L154.094 500.672C148.493 491.394 140.171 484.07 130.26 479.695L20.3421 431.171C10.5342 427.074 4 416.32 4 404.275V79.1306Z" fill="url(#paint0_linear_2580_813)"/>
<path d="M307 79.1306C307 78.5481 306.525 78.0775 305.943 78.061C283.225 77.4154 264.965 56.0137 264.844 29.6545C264.843 29.4965 264.747 29.353 264.601 29.2942C231.629 16.0672 190.992 9.49409 155.5 8V503L156.906 500.672C162.507 491.394 170.829 484.07 180.74 479.695L290.658 431.171C300.466 427.074 307 416.32 307 404.275V79.1306Z" fill="url(#paint1_linear_2580_813)"/>
</g>
<mask id="mask0_2580_813" style="mask-type:alpha" maskUnits="userSpaceOnUse" x="4" y="8" width="303" height="495">
<path d="M4 79.1306C4 78.5481 4.47503 78.0775 5.05686 78.061C27.7754 77.4154 46.0352 56.0137 46.1559 29.6545C46.1566 29.4965 46.2526 29.353 46.3992 29.2942C79.3713 16.0672 120.008 9.49409 155.5 8V503L154.094 500.672C148.493 491.394 140.171 484.07 130.26 479.695L20.3421 431.171C10.5342 427.074 4 416.32 4 404.275V79.1306Z" fill="url(#paint2_linear_2580_813)"/>
<path d="M307 79.1306C307 78.5481 306.525 78.0775 305.943 78.061C283.225 77.4154 264.965 56.0137 264.844 29.6545C264.843 29.4965 264.747 29.353 264.601 29.2942C231.629 16.0672 190.992 9.49409 155.5 8V503L156.906 500.672C162.507 491.394 170.829 484.07 180.74 479.695L290.658 431.171C300.466 427.074 307 416.32 307 404.275V79.1306Z" fill="url(#paint3_linear_2580_813)"/>
</mask>
<g mask="url(#mask0_2580_813)">
<rect x="-12.3281" y="33.6908" width="320" height="260.418" fill="url(#paint4_linear_2580_813)"/>
<g filter="url(#filter1_d_2580_813)">
<path d="M72.6699 127.69L305.67 360.69" stroke="url(#paint5_linear_2580_813)" stroke-width="4"/>
</g>
<g filter="url(#filter2_d_2580_813)">
<line x1="324.256" y1="244.103" x2="154.256" y2="74.1032" stroke="url(#paint6_linear_2580_813)" stroke-width="4" shape-rendering="crispEdges"/>
</g>
<g filter="url(#filter3_d_2580_813)">
<line x1="324.256" y1="261.103" x2="154.256" y2="91.1032" stroke="url(#paint7_linear_2580_813)" stroke-width="4" shape-rendering="crispEdges"/>
</g>
<g filter="url(#filter4_d_2580_813)">
<line x1="324.256" y1="278.103" x2="154.256" y2="108.103" stroke="url(#paint8_linear_2580_813)" stroke-width="4" shape-rendering="crispEdges"/>
</g>
<g filter="url(#filter5_d_2580_813)">
<line x1="324.256" y1="295.104" x2="154.256" y2="125.104" stroke="url(#paint9_linear_2580_813)" stroke-width="4" shape-rendering="crispEdges"/>
</g>
<g filter="url(#filter6_d_2580_813)">
<rect x="-148.001" y="162.348" width="416.27" height="236.558" transform="rotate(-45 -148.001 162.348)" fill="url(#paint10_linear_2580_813)"/>
<rect x="-145.173" y="162.348" width="412.27" height="232.558" transform="rotate(-45 -145.173 162.348)" stroke="#FFD87C" stroke-width="4"/>
</g>
<rect width="415.224" height="63.955" transform="matrix(0.707107 -0.707107 -0.707107 -0.707107 -62.2617 248.409)" fill="url(#paint11_linear_2580_813)"/>
<g filter="url(#filter7_d_2580_813)">
<path d="M-13.3301 297.032L281.341 2.3603" stroke="url(#paint12_linear_2580_813)" stroke-width="8"/>
</g>
<path d="M-73.0842 -0.437004C-75.0696 4.60179 -74.5765 9.68168 -71.6048 14.8027C-68.8131 19.8528 -64.677 24.3931 -59.1967 28.4236C-53.7163 32.4541 -48.1868 35.5684 -42.6081 37.7666C-31.8107 42.0211 -19.2409 45.2069 -4.89856 47.324C9.44374 49.441 24.3396 50.9446 39.7891 51.8348C55.3094 52.545 70.3253 52.9524 84.8369 53.0572C99.5992 53.0529 112.889 53.0922 124.707 53.1749C136.524 53.2577 145.811 53.6947 152.568 54.486C154.33 54.7642 155.876 55.0616 157.206 55.378C158.717 55.7653 159.922 56.1362 160.822 56.4908C164.061 57.7671 165.291 59.3951 164.511 61.3746C163.376 64.2539 158.705 67.4029 150.497 70.8215C142.47 74.3111 131.999 77.6695 119.085 80.8969C106.422 84.0152 92.409 86.6018 77.0465 88.6565C61.6841 90.7112 46.1554 91.8688 30.4605 92.1293C15.0164 92.2808 0.480471 90.919 -13.1474 88.0439C-18.1099 86.9201 -22.1154 86.7971 -25.1639 87.6749C-28.1416 88.3727 -29.9495 89.5314 -30.5876 91.151C-31.1549 92.5906 -30.7515 94.2049 -29.3774 95.9937C-28.0032 97.7825 -25.6066 99.3506 -22.1874 100.698C-7.86177 106.55 6.35751 112.673 20.4704 119.066C34.7633 125.529 48.0718 132.644 60.3959 140.411C79.4219 152.273 92.2966 162.336 99.02 170.598C105.814 178.681 108.219 185.242 106.233 190.28C104.39 194.959 99.7021 198.414 92.1708 200.643C84.8903 202.764 75.7912 203.961 64.8735 204.232C54.1357 204.575 42.6754 204.113 30.4926 202.847C18.3097 201.581 6.46507 199.72 -5.04143 197.265C-16.477 194.631 -26.4238 191.647 -34.8818 188.314C-36.8613 187.534 -38.8408 186.754 -40.8204 185.974C-42.549 185.085 -44.1877 184.231 -45.7364 183.413C-46.5653 182.879 -47.5196 182.399 -48.5993 181.973C-49.4991 181.619 -50.3989 181.264 -51.2987 180.91C-55.4377 179.279 -59.3395 178.365 -63.0042 178.168C-66.6689 177.972 -68.7849 178.593 -69.3521 180.033C-69.9194 181.473 -68.8316 183.461 -66.0887 185.997C-63.4168 188.713 -59.8287 191.478 -55.3244 194.292C-50.6401 197.177 -46.6948 199.563 -43.4883 201.451C-41.1107 202.803 -37.6507 205.102 -33.1083 208.347C-28.495 211.412 -23.5381 214.925 -18.2377 218.884C-12.7573 222.915 -7.56329 227.145 -2.65558 231.573C2.50301 235.893 6.69089 240.038 9.90808 244.008C13.3052 248.049 15.1373 251.578 15.4043 254.593C15.6224 255.095 15.9114 255.417 16.2713 255.559C17.1711 255.913 18.0655 255.226 18.9545 253.498C19.9145 251.589 20.3563 250.204 20.28 249.342C20.6894 245.138 19.3018 240.745 16.1174 236.164C13.1839 231.473 9.26323 226.914 4.35551 222.486C-0.301338 217.948 -5.10001 213.77 -10.0405 209.952C-14.801 206.206 -18.7681 203.083 -21.9418 200.585C-8.74479 203.498 4.41409 205.981 17.5348 208.032C30.9064 209.975 44.3627 210.911 57.9035 210.841C76.7232 210.565 90.8286 208.534 100.22 204.751C109.791 201.038 115.711 196.302 117.98 190.543C120.391 184.425 119.404 177.695 115.02 170.354C110.887 162.905 104.366 155.449 95.4552 147.988C86.7958 140.418 76.7757 133.663 65.3949 127.724C59.56 124.593 53.0789 121.52 45.9515 118.503C39.0041 115.558 32.1112 112.738 25.2729 110.043L4.21792 101.747C1.15865 100.542 -1.63068 99.4425 -4.15008 98.4497C-6.66947 97.457 -8.70352 96.5516 -10.2522 95.7335C-5.4369 96.1756 1.4071 96.4815 10.2798 96.6513C19.3324 96.8919 29.533 96.8573 40.8816 96.5474C52.4101 96.3084 64.4213 95.6358 76.9152 94.5298C89.409 93.4237 101.595 91.7805 113.473 89.6001C125.601 87.3106 136.541 84.3448 146.292 80.7027C156.294 76.9516 164.316 72.4205 170.359 67.1093C173.898 63.9303 176.342 60.6311 177.689 57.212C179.249 53.2529 179.391 49.4628 178.115 45.8416C177.019 42.2914 174.312 39.6653 169.993 37.9635C163.515 35.4108 156.504 34.2078 148.962 34.3544C141.6 34.572 134.115 35.3648 126.508 36.733C118.9 38.1012 111.579 39.2704 104.544 40.2406C91.8372 41.8865 77.511 42.8942 61.5652 43.2638C45.6194 43.6333 29.5783 42.9258 13.4418 41.1413C-2.62384 39.1768 -17.405 35.5354 -30.9018 30.2173C-35.2207 28.5155 -39.3788 26.6691 -43.376 24.6783C-47.3023 22.5076 -50.9423 20.1378 -54.2959 17.5689C-59.4163 13.6803 -62.5954 10.1407 -63.8331 6.95039C-65.1798 3.50918 -65.3568 0.528875 -64.3641 -1.99052C-63.3004 -4.68987 -61.4979 -6.89018 -58.9565 -8.59144C-56.595 -10.3636 -54.2309 -11.615 -51.864 -12.3456C-49.6771 -13.147 -48.4392 -13.3869 -48.1502 -13.0651C-46.9721 -14.472 -47.1739 -15.2791 -48.7553 -15.4865C-50.5168 -15.7647 -52.42 -15.6831 -54.4651 -15.2415C-56.6901 -14.8709 -58.0535 -14.5765 -58.5552 -14.3584C-66.2557 -10.1163 -71.0987 -5.4758 -73.0842 -0.437004Z" fill="url(#paint13_linear_2580_813)"/>
<g filter="url(#filter8_d_2580_813)">
<line x1="-60.4494" y1="249.569" x2="233.551" y2="-44.4305" stroke="#FFD87C" stroke-width="6"/>
</g>
<g filter="url(#filter9_d_2580_813)">
<line x1="-105.45" y1="204.569" x2="188.55" y2="-89.4305" stroke="#FFD87C" stroke-width="6"/>
</g>
<g filter="url(#filter10_f_2580_813)">
<path d="M210.976 63.6908L212.102 70.5209L219.671 72.0568L212.102 73.462L210.976 78.6908L209.371 73.462L201.671 72.0568L209.371 70.5209L210.976 63.6908Z" fill="url(#paint14_radial_2580_813)"/>
</g>
<g filter="url(#filter11_f_2580_813)">
<path d="M56.5953 120.691L58.159 130.253L68.6709 132.403L58.159 134.371L56.5953 141.691L54.3656 134.371L43.6709 132.403L54.3656 130.253L56.5953 120.691Z" fill="url(#paint15_radial_2580_813)"/>
</g>
<g filter="url(#filter12_f_2580_813)">
<path d="M186.909 234.691L187.784 240.155L193.671 241.384L187.784 242.508L186.909 246.691L185.66 242.508L179.671 241.384L185.66 240.155L186.909 234.691Z" fill="url(#paint16_radial_2580_813)"/>
</g>
</g>
<g filter="url(#filter13_d_2580_813)">
<line x1="5" y1="295.872" x2="307" y2="295.872" stroke="white" stroke-opacity="0.9" stroke-width="2" shape-rendering="crispEdges"/>
</g>
<g filter="url(#filter14_f_2580_813)">
<path d="M235.074 289.801L241.241 291.212L244.343 290.047L254.727 280.526L251.958 283.958L245.648 291.299L244.995 294.812L245.9 300.184L240.129 299.885V299.885C237.472 300.788 235.032 302.235 232.964 304.133L225.655 310.839L234.794 300.003L236.376 296.285L235.074 289.801Z" fill="url(#paint17_radial_2580_813)"/>
</g>
<g style="mix-blend-mode:hue">
<path d="M4 78.5984C4 78.0203 4.47466 77.5532 5.05603 77.5368C27.7569 76.896 46.0026 55.6544 46.1232 29.4925C46.1239 29.3356 46.2198 29.1932 46.3662 29.1349C79.3127 16.0068 119.918 9.48291 155.382 8V499.296L153.978 496.985C148.381 487.777 140.065 480.507 130.162 476.165L20.3294 428.005C10.5291 423.938 4 413.264 4 401.31V78.5984Z" fill="url(#paint18_linear_2580_813)"/>
<path d="M306.765 78.5984C306.765 78.0203 306.29 77.5532 305.709 77.5368C283.008 76.896 264.762 55.6544 264.641 29.4925C264.641 29.3356 264.545 29.1932 264.398 29.1349C231.452 16.0068 190.846 9.48291 155.382 8V499.296L156.787 496.985C162.384 487.777 170.7 480.507 180.602 476.165L290.435 428.005C300.236 423.938 306.765 413.264 306.765 401.31V78.5984Z" fill="url(#paint19_linear_2580_813)"/>
</g>
<g filter="url(#filter15_i_2580_813)">
<path d="M155.585 9.00181L155.5 8.99818L155.415 9.00181C120.713 10.4811 80.9055 16.9876 48.527 30.1401C47.6098 30.5127 47.0472 31.3985 47.0429 32.3392C46.929 57.5348 29.7456 77.4733 8.97143 78.0711C7.34346 78.1179 6 79.4482 6 81.1247V401.671C6 414.193 12.7065 425.608 23.112 430.021C23.1184 430.023 23.1249 430.026 23.1314 430.029L130.111 477.85C139.38 481.994 147.169 488.933 152.413 497.729L153.782 500.024L155.5 502.905L157.218 500.024L158.587 497.729C163.831 488.933 171.62 481.994 180.889 477.85L287.869 430.029C287.875 430.026 287.881 430.023 287.888 430.021C298.293 425.608 305 414.193 305 401.671V81.1247C305 79.4483 303.657 78.1179 302.029 78.0711C281.254 77.4733 264.071 57.5348 263.957 32.3392C263.953 31.3985 263.39 30.5127 262.473 30.1401C230.094 16.9876 190.287 10.4811 155.585 9.00181Z" stroke="url(#paint20_linear_2580_813)" stroke-width="4"/>
<path d="M155.585 9.00181L155.5 8.99818L155.415 9.00181C120.713 10.4811 80.9055 16.9876 48.527 30.1401C47.6098 30.5127 47.0472 31.3985 47.0429 32.3392C46.929 57.5348 29.7456 77.4733 8.97143 78.0711C7.34346 78.1179 6 79.4482 6 81.1247V401.671C6 414.193 12.7065 425.608 23.112 430.021C23.1184 430.023 23.1249 430.026 23.1314 430.029L130.111 477.85C139.38 481.994 147.169 488.933 152.413 497.729L153.782 500.024L155.5 502.905L157.218 500.024L158.587 497.729C163.831 488.933 171.62 481.994 180.889 477.85L287.869 430.029C287.875 430.026 287.881 430.023 287.888 430.021C298.293 425.608 305 414.193 305 401.671V81.1247C305 79.4483 303.657 78.1179 302.029 78.0711C281.254 77.4733 264.071 57.5348 263.957 32.3392C263.953 31.3985 263.39 30.5127 262.473 30.1401C230.094 16.9876 190.287 10.4811 155.585 9.00181Z" stroke="#FFF8DC" stroke-opacity="0.46" stroke-width="4"/>
</g>
<defs>
<filter id="filter0_d_2580_813" x="0" y="0" width="315" height="507" filterUnits="userSpaceOnUse" color-interpolation-filters="sRGB">
<feFlood flood-opacity="0" result="BackgroundImageFix"/>
<feColorMatrix in="SourceAlpha" type="matrix" values="0 0 0 0 0 0 0 0 0 0 0 0 0 0 0 0 0 0 127 0" result="hardAlpha"/>
<feOffset dx="2" dy="-2"/>
<feGaussianBlur stdDeviation="3"/>
<feComposite in2="hardAlpha" operator="out"/>
<feColorMatrix type="matrix" values="0 0 0 0 0.130729 0 0 0 0 0.130729 0 0 0 0 0.130729 0 0 0 0.5 0"/>
<feBlend mode="normal" in2="BackgroundImageFix" result="effect1_dropShadow_2580_813"/>
<feBlend mode="normal" in="SourceGraphic" in2="effect1_dropShadow_2580_813" result="shape"/>
</filter>
<filter id="filter1_d_2580_813" x="68.1559" y="126.176" width="240.028" height="240.028" filterUnits="userSpaceOnUse" color-interpolation-filters="sRGB">
<feFlood flood-opacity="0" result="BackgroundImageFix"/>
<feColorMatrix in="SourceAlpha" type="matrix" values="0 0 0 0 0 0 0 0 0 0 0 0 0 0 0 0 0 0 127 0" result="hardAlpha"/>
<feOffset dx="-1" dy="2"/>
<feGaussianBlur stdDeviation="1.05"/>
<feComposite in2="hardAlpha" operator="out"/>
<feColorMatrix type="matrix" values="0 0 0 0 0 0 0 0 0 0 0 0 0 0 0 0 0 0 0.25 0"/>
<feBlend mode="normal" in2="BackgroundImageFix" result="effect1_dropShadow_2580_813"/>
<feBlend mode="normal" in="SourceGraphic" in2="effect1_dropShadow_2580_813" result="shape"/>
</filter>
<filter id="filter2_d_2580_813" x="152.842" y="72.689" width="172.828" height="173.828" filterUnits="userSpaceOnUse" color-interpolation-filters="sRGB">
<feFlood flood-opacity="0" result="BackgroundImageFix"/>
<feColorMatrix in="SourceAlpha" type="matrix" values="0 0 0 0 0 0 0 0 0 0 0 0 0 0 0 0 0 0 127 0" result="hardAlpha"/>
<feOffset dy="1"/>
<feComposite in2="hardAlpha" operator="out"/>
<feColorMatrix type="matrix" values="0 0 0 0 0 0 0 0 0 0 0 0 0 0 0 0 0 0 0.25 0"/>
<feBlend mode="normal" in2="BackgroundImageFix" result="effect1_dropShadow_2580_813"/>
<feBlend mode="normal" in="SourceGraphic" in2="effect1_dropShadow_2580_813" result="shape"/>
</filter>
<filter id="filter3_d_2580_813" x="152.842" y="89.689" width="172.828" height="173.828" filterUnits="userSpaceOnUse" color-interpolation-filters="sRGB">
<feFlood flood-opacity="0" result="BackgroundImageFix"/>
<feColorMatrix in="SourceAlpha" type="matrix" values="0 0 0 0 0 0 0 0 0 0 0 0 0 0 0 0 0 0 127 0" result="hardAlpha"/>
<feOffset dy="1"/>
<feComposite in2="hardAlpha" operator="out"/>
<feColorMatrix type="matrix" values="0 0 0 0 0 0 0 0 0 0 0 0 0 0 0 0 0 0 0.25 0"/>
<feBlend mode="normal" in2="BackgroundImageFix" result="effect1_dropShadow_2580_813"/>
<feBlend mode="normal" in="SourceGraphic" in2="effect1_dropShadow_2580_813" result="shape"/>
</filter>
<filter id="filter4_d_2580_813" x="152.842" y="106.689" width="172.828" height="173.828" filterUnits="userSpaceOnUse" color-interpolation-filters="sRGB">
<feFlood flood-opacity="0" result="BackgroundImageFix"/>
<feColorMatrix in="SourceAlpha" type="matrix" values="0 0 0 0 0 0 0 0 0 0 0 0 0 0 0 0 0 0 127 0" result="hardAlpha"/>
<feOffset dy="1"/>
<feComposite in2="hardAlpha" operator="out"/>
<feColorMatrix type="matrix" values="0 0 0 0 0 0 0 0 0 0 0 0 0 0 0 0 0 0 0.25 0"/>
<feBlend mode="normal" in2="BackgroundImageFix" result="effect1_dropShadow_2580_813"/>
<feBlend mode="normal" in="SourceGraphic" in2="effect1_dropShadow_2580_813" result="shape"/>
</filter>
<filter id="filter5_d_2580_813" x="152.842" y="123.689" width="172.828" height="173.828" filterUnits="userSpaceOnUse" color-interpolation-filters="sRGB">
<feFlood flood-opacity="0" result="BackgroundImageFix"/>
<feColorMatrix in="SourceAlpha" type="matrix" values="0 0 0 0 0 0 0 0 0 0 0 0 0 0 0 0 0 0 127 0" result="hardAlpha"/>
<feOffset dy="1"/>
<feComposite in2="hardAlpha" operator="out"/>
<feColorMatrix type="matrix" values="0 0 0 0 0 0 0 0 0 0 0 0 0 0 0 0 0 0 0.25 0"/>
<feBlend mode="normal" in2="BackgroundImageFix" result="effect1_dropShadow_2580_813"/>
<feBlend mode="normal" in="SourceGraphic" in2="effect1_dropShadow_2580_813" result="shape"/>
</filter>
<filter id="filter6_d_2580_813" x="-148.001" y="-132" width="468.119" height="468.12" filterUnits="userSpaceOnUse" color-interpolation-filters="sRGB">
<feFlood flood-opacity="0" result="BackgroundImageFix"/>
<feColorMatrix in="SourceAlpha" type="matrix" values="0 0 0 0 0 0 0 0 0 0 0 0 0 0 0 0 0 0 127 0" result="hardAlpha"/>
<feMorphology radius="8" operator="erode" in="SourceAlpha" result="effect1_dropShadow_2580_813"/>
<feOffset dx="10" dy="10"/>
<feGaussianBlur stdDeviation="2.25"/>
<feComposite in2="hardAlpha" operator="out"/>
<feColorMatrix type="matrix" values="0 0 0 0 0 0 0 0 0 0 0 0 0 0 0 0 0 0 0.25 0"/>
<feBlend mode="normal" in2="BackgroundImageFix" result="effect1_dropShadow_2580_813"/>
<feBlend mode="normal" in="SourceGraphic" in2="effect1_dropShadow_2580_813" result="shape"/>
</filter>
<filter id="filter7_d_2580_813" x="-23.6582" y="-3.96811" width="315.327" height="315.329" filterUnits="userSpaceOnUse" color-interpolation-filters="sRGB">
<feFlood flood-opacity="0" result="BackgroundImageFix"/>
<feColorMatrix in="SourceAlpha" type="matrix" values="0 0 0 0 0 0 0 0 0 0 0 0 0 0 0 0 0 0 127 0" result="hardAlpha"/>
<feOffset dy="4"/>
<feGaussianBlur stdDeviation="3.75"/>
<feComposite in2="hardAlpha" operator="out"/>
<feColorMatrix type="matrix" values="0 0 0 0 0 0 0 0 0 0 0 0 0 0 0 0 0 0 0.25 0"/>
<feBlend mode="normal" in2="BackgroundImageFix" result="effect1_dropShadow_2580_813"/>
<feBlend mode="normal" in="SourceGraphic" in2="effect1_dropShadow_2580_813" result="shape"/>
</filter>
<filter id="filter8_d_2580_813" x="-73.2703" y="-51.2518" width="315.642" height="315.643" filterUnits="userSpaceOnUse" color-interpolation-filters="sRGB">
<feFlood flood-opacity="0" result="BackgroundImageFix"/>
<feColorMatrix in="SourceAlpha" type="matrix" values="0 0 0 0 0 0 0 0 0 0 0 0 0 0 0 0 0 0 127 0" result="hardAlpha"/>
<feOffset dx="-2" dy="4"/>
<feGaussianBlur stdDeviation="4.35"/>
<feComposite in2="hardAlpha" operator="out"/>
<feColorMatrix type="matrix" values="0 0 0 0 0 0 0 0 0 0 0 0 0 0 0 0 0 0 0.4 0"/>
<feBlend mode="normal" in2="BackgroundImageFix" result="effect1_dropShadow_2580_813"/>
<feBlend mode="normal" in="SourceGraphic" in2="effect1_dropShadow_2580_813" result="shape"/>
</filter>
<filter id="filter9_d_2580_813" x="-118.271" y="-96.2518" width="315.642" height="315.643" filterUnits="userSpaceOnUse" color-interpolation-filters="sRGB">
<feFlood flood-opacity="0" result="BackgroundImageFix"/>
<feColorMatrix in="SourceAlpha" type="matrix" values="0 0 0 0 0 0 0 0 0 0 0 0 0 0 0 0 0 0 127 0" result="hardAlpha"/>
<feOffset dx="-2" dy="4"/>
<feGaussianBlur stdDeviation="4.35"/>
<feComposite in2="hardAlpha" operator="out"/>
<feColorMatrix type="matrix" values="0 0 0 0 0 0 0 0 0 0 0 0 0 0 0 0 0 0 0.4 0"/>
<feBlend mode="normal" in2="BackgroundImageFix" result="effect1_dropShadow_2580_813"/>
<feBlend mode="normal" in="SourceGraphic" in2="effect1_dropShadow_2580_813" result="shape"/>
</filter>
<filter id="filter10_f_2580_813" x="200.171" y="62.1908" width="21" height="18" filterUnits="userSpaceOnUse" color-interpolation-filters="sRGB">
<feFlood flood-opacity="0" result="BackgroundImageFix"/>
<feBlend mode="normal" in="SourceGraphic" in2="BackgroundImageFix" result="shape"/>
<feGaussianBlur stdDeviation="0.75" result="effect1_foregroundBlur_2580_813"/>
</filter>
<filter id="filter11_f_2580_813" x="42.1709" y="119.191" width="28" height="24" filterUnits="userSpaceOnUse" color-interpolation-filters="sRGB">
<feFlood flood-opacity="0" result="BackgroundImageFix"/>
<feBlend mode="normal" in="SourceGraphic" in2="BackgroundImageFix" result="shape"/>
<feGaussianBlur stdDeviation="0.75" result="effect1_foregroundBlur_2580_813"/>
</filter>
<filter id="filter12_f_2580_813" x="178.771" y="233.791" width="15.8" height="13.8" filterUnits="userSpaceOnUse" color-interpolation-filters="sRGB">
<feFlood flood-opacity="0" result="BackgroundImageFix"/>
<feBlend mode="normal" in="SourceGraphic" in2="BackgroundImageFix" result="shape"/>
<feGaussianBlur stdDeviation="0.45" result="effect1_foregroundBlur_2580_813"/>
</filter>
<filter id="filter13_d_2580_813" x="3.7" y="294.572" width="304.6" height="4.6" filterUnits="userSpaceOnUse" color-interpolation-filters="sRGB">
<feFlood flood-opacity="0" result="BackgroundImageFix"/>
<feColorMatrix in="SourceAlpha" type="matrix" values="0 0 0 0 0 0 0 0 0 0 0 0 0 0 0 0 0 0 127 0" result="hardAlpha"/>
<feOffset dy="1"/>
<feGaussianBlur stdDeviation="0.65"/>
<feComposite in2="hardAlpha" operator="out"/>
<feColorMatrix type="matrix" values="0 0 0 0 0 0 0 0 0 0 0 0 0 0 0 0 0 0 0.25 0"/>
<feBlend mode="normal" in2="BackgroundImageFix" result="effect1_dropShadow_2580_813"/>
<feBlend mode="normal" in="SourceGraphic" in2="effect1_dropShadow_2580_813" result="shape"/>
</filter>
<filter id="filter14_f_2580_813" x="222.755" y="277.626" width="34.8713" height="36.1126" filterUnits="userSpaceOnUse" color-interpolation-filters="sRGB">
<feFlood flood-opacity="0" result="BackgroundImageFix"/>
<feBlend mode="normal" in="SourceGraphic" in2="BackgroundImageFix" result="shape"/>
<feGaussianBlur stdDeviation="1.45" result="effect1_foregroundBlur_2580_813"/>
</filter>
<filter id="filter15_i_2580_813" x="4" y="6.99637" width="303" height="503.814" filterUnits="userSpaceOnUse" color-interpolation-filters="sRGB">
<feFlood flood-opacity="0" result="BackgroundImageFix"/>
<feBlend mode="normal" in="SourceGraphic" in2="BackgroundImageFix" result="shape"/>
<feColorMatrix in="SourceAlpha" type="matrix" values="0 0 0 0 0 0 0 0 0 0 0 0 0 0 0 0 0 0 127 0" result="hardAlpha"/>
<feOffset dy="4"/>
<feGaussianBlur stdDeviation="2"/>
<feComposite in2="hardAlpha" operator="arithmetic" k2="-1" k3="1"/>
<feColorMatrix type="matrix" values="0 0 0 0 0 0 0 0 0 0 0 0 0 0 0 0 0 0 0.25 0"/>
<feBlend mode="normal" in2="shape" result="effect1_innerShadow_2580_813"/>
</filter>
<linearGradient id="paint0_linear_2580_813" x1="-37.5" y1="90" x2="285.182" y2="439.332" gradientUnits="userSpaceOnUse">
<stop offset="0.365" stop-color="#FFAF45"/>
<stop offset="0.64" stop-color="#FFBC48"/>
<stop offset="0.905" stop-color="#FFD58D"/>
</linearGradient>
<linearGradient id="paint1_linear_2580_813" x1="-37.5" y1="90" x2="285.182" y2="439.332" gradientUnits="userSpaceOnUse">
<stop offset="0.365" stop-color="#FFAF45"/>
<stop offset="0.64" stop-color="#FFBC48"/>
<stop offset="0.905" stop-color="#FFD58D"/>
</linearGradient>
<linearGradient id="paint2_linear_2580_813" x1="4.00001" y1="6.81358" x2="263.924" y2="517.365" gradientUnits="userSpaceOnUse">
<stop offset="0.505" stop-color="#FFAF45"/>
<stop offset="0.825" stop-color="#FFC94A"/>
</linearGradient>
<linearGradient id="paint3_linear_2580_813" x1="4.00001" y1="6.81358" x2="263.924" y2="517.365" gradientUnits="userSpaceOnUse">
<stop offset="0.505" stop-color="#FFAF45"/>
<stop offset="0.825" stop-color="#FFC94A"/>
</linearGradient>
<linearGradient id="paint4_linear_2580_813" x1="-14.8281" y1="-16.8092" x2="260.172" y2="346.691" gradientUnits="userSpaceOnUse">
<stop offset="0.395" stop-color="#DE9C00"/>
<stop offset="0.845" stop-color="#FFC94A"/>
<stop offset="1" stop-color="#FFE5A9"/>
</linearGradient>
<linearGradient id="paint5_linear_2580_813" x1="81.2003" y1="174.428" x2="314.2" y2="407.428" gradientUnits="userSpaceOnUse">
<stop offset="0.715" stop-color="#FFD87C"/>
<stop offset="1" stop-color="#FFE7AF"/>
</linearGradient>
<linearGradient id="paint6_linear_2580_813" x1="156.023" y1="72.3354" x2="326.023" y2="242.335" gradientUnits="userSpaceOnUse">
<stop offset="0.415" stop-color="#CE9100" stop-opacity="0.55"/>
<stop offset="0.945" stop-color="#FFECBE"/>
</linearGradient>
<linearGradient id="paint7_linear_2580_813" x1="156.023" y1="89.3354" x2="326.023" y2="259.335" gradientUnits="userSpaceOnUse">
<stop offset="0.415" stop-color="#CE9100" stop-opacity="0.55"/>
<stop offset="0.945" stop-color="#FFECBE"/>
</linearGradient>
<linearGradient id="paint8_linear_2580_813" x1="156.023" y1="106.336" x2="326.023" y2="276.336" gradientUnits="userSpaceOnUse">
<stop offset="0.415" stop-color="#CE9100" stop-opacity="0.55"/>
<stop offset="0.945" stop-color="#FFECBE"/>
</linearGradient>
<linearGradient id="paint9_linear_2580_813" x1="156.023" y1="123.336" x2="326.023" y2="293.336" gradientUnits="userSpaceOnUse">
<stop offset="0.415" stop-color="#CE9100" stop-opacity="0.55"/>
<stop offset="0.945" stop-color="#FFECBE"/>
</linearGradient>
<linearGradient id="paint10_linear_2580_813" x1="-145.845" y1="289.672" x2="267.203" y2="289.672" gradientUnits="userSpaceOnUse">
<stop offset="0.455" stop-color="#FFC94A"/>
<stop offset="1" stop-color="#FFD87C"/>
</linearGradient>
<linearGradient id="paint11_linear_2580_813" x1="0" y1="31.9775" x2="415.224" y2="31.9775" gradientUnits="userSpaceOnUse">
<stop offset="0.36" stop-color="#FFD87C"/>
<stop offset="0.505" stop-color="#FFF0CD" stop-opacity="0.49"/>
<stop offset="0.65" stop-color="#FFD87C"/>
</linearGradient>
<linearGradient id="paint12_linear_2580_813" x1="-13.3303" y1="297.032" x2="281.341" y2="2.36049" gradientUnits="userSpaceOnUse">
<stop stop-color="#FFD166"/>
<stop offset="1" stop-color="#FFD87C"/>
</linearGradient>
<linearGradient id="paint13_linear_2580_813" x1="-53.2849" y1="293.332" x2="131.91" y2="-63.9092" gradientUnits="userSpaceOnUse">
<stop stop-color="#E1AA27"/>
<stop offset="1" stop-color="#FFCC54"/>
</linearGradient>
<radialGradient id="paint14_radial_2580_813" cx="0" cy="0" r="1" gradientUnits="userSpaceOnUse" gradientTransform="translate(210.424 72.116) rotate(167.072) scale(7.15765 12.1913)">
<stop offset="0.4" stop-color="white" stop-opacity="0.8"/>
<stop offset="1" stop-color="white" stop-opacity="0"/>
</radialGradient>
<radialGradient id="paint15_radial_2580_813" cx="0" cy="0" r="1" gradientUnits="userSpaceOnUse" gradientTransform="translate(55.8281 132.486) rotate(166.972) scale(9.94518 17.061)">
<stop offset="0.4" stop-color="white" stop-opacity="0.8"/>
<stop offset="1" stop-color="white" stop-opacity="0"/>
</radialGradient>
<radialGradient id="paint16_radial_2580_813" cx="0" cy="0" r="1" gradientUnits="userSpaceOnUse" gradientTransform="translate(186.479 241.431) rotate(166.716) scale(5.57513 9.73895)">
<stop offset="0.4" stop-color="white" stop-opacity="0.8"/>
<stop offset="1" stop-color="white" stop-opacity="0"/>
</radialGradient>
<radialGradient id="paint17_radial_2580_813" cx="0" cy="0" r="1" gradientUnits="userSpaceOnUse" gradientTransform="translate(241.026 296.118) rotate(42.9353) scale(11.6094 23.2128)">
<stop offset="0.287301" stop-color="white"/>
<stop offset="1" stop-color="white" stop-opacity="0"/>
</radialGradient>
<linearGradient id="paint18_linear_2580_813" x1="4.00001" y1="6.82246" x2="260.956" y2="514.953" gradientUnits="userSpaceOnUse">
<stop stop-color="#FFC94A"/>
<stop offset="1" stop-color="#FFAF45"/>
</linearGradient>
<linearGradient id="paint19_linear_2580_813" x1="4.00001" y1="6.82246" x2="260.956" y2="514.953" gradientUnits="userSpaceOnUse">
<stop stop-color="#FFC94A"/>
<stop offset="1" stop-color="#FFAF45"/>
</linearGradient>
<linearGradient id="paint20_linear_2580_813" x1="390" y1="60" x2="-45.9859" y2="392.27" gradientUnits="userSpaceOnUse">
<stop offset="0.38" stop-color="#FFC100"/>
<stop offset="0.953071" stop-color="#C29300" stop-opacity="0.65"/>
</linearGradient>
</defs>
</svg>
