<svg width="26" height="26" viewBox="0 0 26 26" fill="none" xmlns="http://www.w3.org/2000/svg">
<path d="M25.02 13.07C25.02 12.208 24.9365 11.3182 24.7975 10.4839H12.7568V15.4059H19.6531C19.375 16.9909 18.4574 18.3813 17.0948 19.2711L21.2103 22.469C23.6296 20.2166 25.02 16.9353 25.02 13.07Z" fill="#4280EF"/>
<path d="M12.7566 25.5278C16.2047 25.5278 19.0967 24.3877 21.2101 22.4412L17.0945 19.2711C15.9544 20.0498 14.4806 20.4947 12.7566 20.4947C9.41966 20.4947 6.6111 18.2423 5.58222 15.239L1.35547 18.4925C3.52446 22.8027 7.91805 25.5278 12.7566 25.5278Z" fill="#34A353"/>
<path d="M5.58237 15.2113C5.05402 13.6262 5.05402 11.9021 5.58237 10.3171L1.35562 7.03583C-0.451873 10.6508 -0.451873 14.9054 1.35562 18.4925L5.58237 15.2113Z" fill="#F6B704"/>
<path d="M12.7566 5.06146C14.5641 5.03365 16.3437 5.72884 17.6507 6.98018L21.2935 3.30958C18.9855 1.1406 15.9266 -0.0273222 12.7566 0.000485322C7.91805 0.000485322 3.52446 2.72563 1.35547 7.0358L5.58222 10.3171C6.6111 7.28607 9.41966 5.06146 12.7566 5.06146Z" fill="#E54335"/>
</svg>
