<svg width="53" height="53" viewBox="0 0 53 53" fill="none" xmlns="http://www.w3.org/2000/svg">
<path d="M22.8161 13.9413C22.0407 13.1602 21.5694 12.1294 21.4867 11.0334C21.4039 9.93744 21.715 8.84785 22.3643 7.95975C22.5007 7.77151 22.6518 7.59428 22.8161 7.42971C23.6821 6.56622 24.8565 6.08111 26.0811 6.08111C27.3057 6.08111 28.4801 6.56622 29.3461 7.42971C30.212 8.2932 30.6984 9.46435 30.6984 10.6855C30.6984 11.9067 30.212 13.0778 29.3461 13.9413L29.3221 13.9678C28.5248 14.7629 26.5396 16.7214 26.5209 16.7426L27.2465 17.4741C27.2678 17.4529 29.3062 15.4387 30.0769 14.6701C31.1367 13.6133 31.732 12.18 31.732 10.6855C31.732 9.19099 31.1367 7.75768 30.0769 6.7009C29.0172 5.64411 27.5798 5.05042 26.0811 5.05042C24.5824 5.05042 23.145 5.64411 22.0853 6.7009C21.8857 6.89934 21.7017 7.11287 21.5351 7.3396C20.7324 8.42461 20.3465 9.7607 20.4474 11.1053C20.5484 12.4498 21.1295 13.7137 22.0853 14.6675L29.7925 22.3531L30.5234 21.627L22.8161 13.9413Z" fill="#F29104"/>
<path d="M21.0191 15.5659C19.8278 14.3644 19.104 12.7796 18.9769 11.0949C18.8498 9.41011 19.3278 7.73519 20.3254 6.36958C20.5372 6.08831 20.769 5.8226 21.0191 5.57451C22.3647 4.33275 24.1401 3.65856 25.9732 3.69323C27.8063 3.72791 29.5548 4.46876 30.8523 5.76052C32.1497 7.05229 32.8955 8.7947 32.9331 10.6226C32.9708 12.4505 32.2976 14.222 31.0545 15.5659L31.0093 15.6109C29.8691 16.7479 28.2028 18.383 28.1842 18.3989L28.907 19.1331C28.9257 19.1172 30.6399 17.4316 31.7827 16.292C33.2627 14.7634 34.0815 12.7164 34.0628 10.5917C34.0442 8.46695 33.1894 6.43453 31.6828 4.93207C30.1761 3.42961 28.1379 2.57729 26.0072 2.55866C23.8765 2.54003 21.8237 3.35657 20.2909 4.83245C20.0032 5.11845 19.7367 5.42491 19.4936 5.74943C18.3396 7.31116 17.7854 9.23375 17.9317 11.1682C18.078 13.1026 18.9151 14.9205 20.2909 16.292L28.0938 24.0678L28.8193 23.331L21.0191 15.5659Z" fill="#F29104"/>
<path d="M19.2647 17.2118C17.6672 15.6014 16.6964 13.4767 16.526 11.2179C16.3556 8.95912 16.9967 6.71355 18.3345 4.88292C18.6169 4.50217 18.9278 4.14335 19.2647 3.80958C21.0469 2.03199 23.4643 1.03321 25.985 1.03296C28.5057 1.03271 30.9233 2.03101 32.7059 3.80825C34.4885 5.58549 35.4901 7.99609 35.4903 10.5097C35.4906 13.0234 34.4895 15.4342 32.7072 17.2118C32.6864 17.2343 32.6643 17.2556 32.6408 17.2754C31.1658 18.7436 29.821 20.0528 29.8077 20.0661L30.5279 20.8028C30.5279 20.8028 31.9312 19.438 33.4354 17.9379C34.4137 16.9617 35.1896 15.8029 35.7188 14.5276C36.2479 13.2524 36.52 11.8857 36.5196 10.5056C36.5191 9.12549 36.246 7.759 35.7159 6.48413C35.1858 5.20927 34.4091 4.051 33.4301 3.07547C32.4511 2.09993 31.2891 1.32623 30.0102 0.798543C28.7314 0.270853 27.3609 -0.000491524 25.9769 6.68389e-07C23.1818 0.000994695 20.5016 1.10918 18.5259 3.08077C18.1554 3.45282 17.8117 3.85045 17.4974 4.27072C16.0009 6.29481 15.2818 8.78683 15.4705 11.2945C15.6592 13.8021 16.7432 16.1592 18.5259 17.9379L26.3846 25.7667L27.1155 25.0405L19.2647 17.2118Z" fill="#F29104"/>
<path d="M13.8939 29.9832C13.1106 30.7564 12.0769 31.2264 10.9779 31.3089C9.87879 31.3915 8.78614 31.0812 7.89555 30.4337C7.70677 30.2977 7.52905 30.147 7.36401 29.9832C6.49809 29.1197 6.01162 27.9485 6.01162 26.7274C6.01162 26.1227 6.13105 25.524 6.3631 24.9654C6.59514 24.4067 6.93525 23.8991 7.36401 23.4716C7.79277 23.044 8.30178 22.7049 8.86198 22.4735C9.42219 22.2421 10.0226 22.123 10.629 22.123C11.8536 22.123 13.028 22.6081 13.8939 23.4716L13.9205 23.4954C14.7178 24.2905 16.6818 26.2702 16.7031 26.2888L17.4366 25.5653C17.4153 25.5441 15.3955 23.5113 14.6248 22.7428C13.565 21.686 12.1277 21.0923 10.629 21.0923C9.13024 21.0923 7.69291 21.686 6.63315 22.7428C5.57339 23.7996 4.97803 25.2329 4.97803 26.7274C4.97803 28.2219 5.57339 29.6552 6.63315 30.712C6.83215 30.911 7.04629 31.0945 7.27365 31.2606C8.36171 32.0611 9.70156 32.4459 11.0499 32.3453C12.3983 32.2446 13.6657 31.6651 14.6221 30.712L22.3294 23.0263L21.6092 22.2896L13.8939 29.9832Z" fill="#F29104"/>
<path d="M15.5226 31.7747C14.3178 32.9626 12.7286 33.6844 11.0391 33.8112C9.34954 33.9379 7.66992 33.4612 6.30047 32.4664C6.01902 32.2545 5.75262 32.0233 5.50316 31.7747C4.2579 30.4328 3.58182 28.6624 3.61659 26.8344C3.65136 25.0065 4.3943 23.2629 5.68969 21.9691C6.98509 20.6753 8.7324 19.9316 10.5654 19.8941C12.3985 19.8565 14.175 20.5278 15.5226 21.7675L15.5678 21.8125C16.7079 22.9495 18.3477 24.6112 18.3637 24.6297L19.0998 23.9089C19.0839 23.8903 17.3936 22.1809 16.2508 21.0413C14.7179 19.5654 12.6651 18.7489 10.5344 18.7675C8.40373 18.7862 6.3656 19.6385 4.85891 21.1409C3.35222 22.6434 2.49751 24.6758 2.47883 26.8005C2.46014 28.9253 3.27898 30.9723 4.75901 32.5009C5.04581 32.7878 5.35314 33.0535 5.67857 33.296C7.24469 34.4467 9.17269 34.9993 11.1125 34.8534C13.0524 34.7075 14.8755 33.8728 16.2508 32.5009L24.0484 24.7251L23.3096 23.9963L15.5226 31.7747Z" fill="#F29104"/>
<path d="M17.1736 33.5237C15.56 35.1183 13.43 36.0883 11.1648 36.2602C8.89966 36.4321 6.64705 35.7947 4.81006 34.4619C4.42823 34.1803 4.06841 33.8703 3.7337 33.5343C1.9497 31.7571 0.946759 29.3459 0.945513 26.8313C0.944267 24.3167 1.94482 21.9045 3.72706 20.1255C5.50929 18.3465 7.92723 17.3464 10.4489 17.3452C12.9706 17.3439 15.3896 18.3417 17.1736 20.1189C17.1968 20.139 17.2182 20.1612 17.2374 20.1851C18.7097 21.656 20.0226 22.997 20.0359 23.0103L20.7747 22.2921C20.7747 22.2921 19.4087 20.8928 17.9044 19.3927C15.9208 17.4588 13.2524 16.3829 10.4783 16.3985C7.70412 16.4141 5.04806 17.5199 3.08642 19.4761C1.12478 21.4322 0.0158151 24.0808 0.000167846 26.8472C-0.0154794 29.6135 1.06345 32.2745 3.00284 34.2525C3.37593 34.622 3.77469 34.9647 4.19614 35.2782C6.22591 36.7704 8.72494 37.4875 11.2397 37.2994C13.7544 37.1112 16.1181 36.0302 17.9018 34.2525L25.7526 26.4238L25.0243 25.695L17.1736 33.5237Z" fill="#F29104"/>
<path d="M29.4228 39.1448C30.2003 39.9263 30.6729 40.9587 30.7557 42.0565C30.8385 43.1543 30.5261 44.2455 29.8746 45.1343C29.7382 45.3225 29.5871 45.4997 29.4228 45.6643C28.5569 46.5278 27.3825 47.0129 26.1579 47.0129C24.9333 47.0129 23.7588 46.5278 22.8929 45.6643C22.027 44.8008 21.5405 43.6297 21.5405 42.4085C21.5405 41.8039 21.6599 41.2051 21.892 40.6465C22.124 40.0879 22.4641 39.5803 22.8929 39.1527L22.9168 39.1262C23.7141 38.3311 25.6994 36.3726 25.718 36.3514L24.9925 35.62C24.9712 35.6412 22.9328 37.6553 22.162 38.4239C21.1502 39.4898 20.5955 40.9074 20.6158 42.375C20.6361 43.8426 21.2299 45.2443 22.2708 46.282C23.3117 47.3196 24.7176 47.9113 26.1894 47.9311C27.6611 47.9508 29.0824 47.3972 30.151 46.3878C30.3506 46.1894 30.5346 45.9758 30.7012 45.7491C31.5039 44.6641 31.8898 43.328 31.7889 41.9834C31.6879 40.6389 31.1068 39.375 30.151 38.4212L22.4438 30.7356L21.7156 31.4512L29.4228 39.1448Z" fill="#F29104"/>
<path d="M31.2163 37.5204C32.4096 38.7223 33.1347 40.3086 33.2618 41.9952C33.3889 43.6817 32.9097 45.3583 31.9099 46.7246C31.6981 47.0059 31.4663 47.2716 31.2163 47.5196C29.8726 48.7768 28.0912 49.4634 26.249 49.4344C24.4067 49.4053 22.648 48.6629 21.3448 47.3641C20.0416 46.0652 19.2962 44.3118 19.2661 42.4748C19.236 40.6377 19.9236 38.8609 21.1836 37.5204L21.2287 37.4753C22.3689 36.3384 24.0352 34.7032 24.0538 34.6873L23.331 33.9532C23.3124 33.9691 21.5982 35.6546 20.4554 36.7942C19.0277 38.3322 18.2531 40.3619 18.294 42.4572C18.335 44.5526 19.1883 46.5507 20.6749 48.0321C22.1615 49.5135 24.1658 50.363 26.267 50.4024C28.3683 50.4417 30.4031 49.6678 31.9445 48.2432C32.2322 47.9572 32.4986 47.6507 32.7418 47.3262C33.8958 45.7645 34.4499 43.8419 34.3036 41.9075C34.1573 39.973 33.3203 38.1551 31.9445 36.7836L24.1469 29.0184L23.416 29.7446L31.2163 37.5204Z" fill="#F29104"/>
<path d="M32.9701 35.8746C34.5676 37.485 35.5384 39.6097 35.7088 41.8685C35.8792 44.1273 35.2382 46.3728 33.9003 48.2035C33.6179 48.5842 33.307 48.943 32.9701 49.2768C31.1879 51.0544 28.7705 52.0532 26.2498 52.0534C23.7291 52.0537 21.3115 51.0554 19.5289 49.2781C17.7463 47.5009 16.7447 45.0903 16.7445 42.5767C16.7442 40.063 17.7454 37.6522 19.5276 35.8746C19.5484 35.8521 19.5706 35.8308 19.594 35.811C21.069 34.3428 22.4138 33.0336 22.4271 33.0203L21.7149 32.2809C21.7149 32.2809 20.3036 33.6458 18.7914 35.1458C16.852 37.1239 15.7731 39.7848 15.7887 42.5512C15.8044 45.3175 16.9134 47.9661 18.875 49.9223C20.8366 51.8784 23.4927 52.9843 26.2668 52.9999C29.041 53.0155 31.7094 51.9396 33.693 50.0056C34.0635 49.6336 34.4072 49.2359 34.7215 48.8157C36.218 46.7916 36.9371 44.2996 36.7484 41.7919C36.5597 39.2843 35.4756 36.9272 33.693 35.1485L25.8502 27.3197L25.1193 28.0459L32.9701 35.8746Z" fill="#F29104"/>
<path d="M38.342 23.1032C39.1258 22.3279 40.1611 21.8566 41.262 21.774C42.3628 21.6914 43.4571 22.003 44.3484 22.6526C44.5372 22.7886 44.7149 22.9393 44.8799 23.1032C45.7459 23.9667 46.2323 25.1378 46.2323 26.359C46.2323 27.5801 45.7459 28.7513 44.8799 29.6148C44.014 30.4783 42.8396 30.9634 41.615 30.9634C40.3904 30.9634 39.2159 30.4783 38.35 29.6148L38.3234 29.5909C37.5261 28.7958 35.5621 26.8161 35.5409 26.7976L34.8073 27.5211C34.8286 27.5423 36.8484 29.575 37.6192 30.3436C38.6789 31.4004 40.1163 31.9941 41.615 31.9941C43.1137 31.9941 44.551 31.4004 45.6108 30.3436C46.6705 29.2868 47.2659 27.8535 47.2659 26.359C47.2659 24.8644 46.6705 23.4311 45.6108 22.3743C45.4106 22.1766 45.1966 21.9932 44.9703 21.8258C43.8822 21.0253 42.5424 20.6404 41.194 20.7411C39.8457 20.8417 38.5782 21.4212 37.6218 22.3743L29.9146 30.06L30.6454 30.7888L38.342 23.1032Z" fill="#F29104"/>
<path d="M36.7128 21.3119C37.9181 20.1219 39.5089 19.3988 41.2002 19.2721C42.8915 19.1453 44.5728 19.6232 45.943 20.6201C46.2244 20.8321 46.4908 21.0632 46.7403 21.3119C48.071 22.6389 48.8187 24.4388 48.8187 26.3155C48.8187 28.1922 48.071 29.9921 46.7403 31.3191C45.4095 32.6461 43.6046 33.3917 41.7226 33.3917C39.8406 33.3917 38.0356 32.6461 36.7049 31.3191L36.6597 31.274C35.5195 30.1371 33.8798 28.4754 33.8638 28.4569L33.1436 29.1777C33.1595 29.1963 34.8498 30.9057 35.9926 32.0453C37.5255 33.5211 39.5783 34.3377 41.709 34.3191C43.8397 34.3004 45.8778 33.4481 47.3845 31.9456C48.8912 30.4432 49.7459 28.4108 49.7646 26.286C49.7833 24.1613 48.9644 22.1143 47.4844 20.5857C47.1976 20.2988 46.8903 20.0331 46.5648 19.7906C44.9987 18.6399 43.0707 18.0873 41.1309 18.2332C39.191 18.3791 37.3679 19.2137 35.9926 20.5857L28.187 28.3668L28.9152 29.0956L36.7128 21.3119Z" fill="#F29104"/>
<path d="M35.0626 19.5624C36.6775 17.9694 38.8081 17.0014 41.0733 16.8314C43.3384 16.6615 45.5903 17.3007 47.4261 18.6349C47.8034 18.917 48.1587 19.227 48.4892 19.5624C50.2251 21.3496 51.1869 23.7456 51.167 26.2336C51.1472 28.7216 50.1472 31.102 48.3829 32.8613C46.6187 34.6207 44.2315 35.6178 41.7366 35.6376C39.2416 35.6574 36.8388 34.6983 35.0467 32.9673C35.0254 32.9434 35.0041 32.9249 34.9855 32.901C33.5105 31.4301 32.2003 30.0891 32.187 30.0759L31.4482 30.7941C31.4482 30.7941 32.8169 32.1934 34.3211 33.6934C36.2982 35.6654 38.9799 36.7733 41.7763 36.7736C44.5726 36.7738 47.2545 35.6663 49.232 33.6948C51.2095 31.7232 52.3206 29.049 52.3208 26.2605C52.3211 23.472 51.2105 20.7976 49.2333 18.8257C48.8602 18.4562 48.4615 18.1135 48.04 17.8C46.0105 16.3073 43.5113 15.5898 40.9965 15.778C38.4816 15.9662 36.1178 17.0476 34.3344 18.8257L26.481 26.6624L27.2118 27.3912L35.0626 19.5624Z" fill="#F29104"/>
</svg>
