<svg width="24" height="25" viewBox="0 0 24 25" fill="none" xmlns="http://www.w3.org/2000/svg">
<path d="M17.571 10.6066C19.7013 10.6066 21.4282 8.87972 21.4282 6.74948C21.4282 4.61924 19.7013 2.89233 17.571 2.89233C15.4408 2.89233 13.7139 4.61924 13.7139 6.74948C13.7139 8.87972 15.4408 10.6066 17.571 10.6066Z" fill="white"/>
<path d="M6.42843 10.6066C8.55867 10.6066 10.2856 8.87972 10.2856 6.74948C10.2856 4.61924 8.55867 2.89233 6.42843 2.89233C4.29819 2.89233 2.57129 4.61924 2.57129 6.74948C2.57129 8.87972 4.29819 10.6066 6.42843 10.6066Z" fill="white"/>
<path d="M17.571 21.7494C19.7013 21.7494 21.4282 20.0225 21.4282 17.8923C21.4282 15.7621 19.7013 14.0352 17.571 14.0352C15.4408 14.0352 13.7139 15.7621 13.7139 17.8923C13.7139 20.0225 15.4408 21.7494 17.571 21.7494Z" fill="white"/>
<path d="M6.42843 21.7494C8.55867 21.7494 10.2856 20.0225 10.2856 17.8923C10.2856 15.7621 8.55867 14.0352 6.42843 14.0352C4.29819 14.0352 2.57129 15.7621 2.57129 17.8923C2.57129 20.0225 4.29819 21.7494 6.42843 21.7494Z" fill="white"/>
</svg>
